<svg xmlns="http://www.w3.org/2000/svg" viewBox="0 0 164.63 36.26"><g id="Layer_2" data-name="Layer 2"><g id="PRINT"><path d="M49.31,11.77a1,1,0,0,1-.7-.26.85.85,0,0,1-.28-.67.88.88,0,0,1,.28-.68,1,1,0,0,1,.7-.25H60.72a1.07,1.07,0,0,1,.72.25,1,1,0,0,1,0,1.37,1.12,1.12,0,0,1-.72.24ZM55,27.08a1,1,0,0,1-.74-.29,1,1,0,0,1-.29-.71V10.91h2.08V26.08a1,1,0,0,1-.29.71A1,1,0,0,1,55,27.08Z" fill="#1a1a1a"/><path d="M68,27.33a6.92,6.92,0,0,1-3.44-.83,6,6,0,0,1-2.29-2.3,6.73,6.73,0,0,1-.83-3.37,7.41,7.41,0,0,1,.85-3.65,6,6,0,0,1,2.21-2.3,5.55,5.55,0,0,1,2.88-.8,5.88,5.88,0,0,1,2.19.42,5.43,5.43,0,0,1,1.86,1.21,6,6,0,0,1,1.3,1.91,6.49,6.49,0,0,1,.52,2.5.85.85,0,0,1-.3.66,1,1,0,0,1-.68.27h-9.7l-.44-1.7h9.45l-.39.35v-.54a3.2,3.2,0,0,0-.68-1.73,3.91,3.91,0,0,0-1.4-1.12,4,4,0,0,0-1.73-.39,4.17,4.17,0,0,0-1.46.26,3.56,3.56,0,0,0-1.3.83,4.41,4.41,0,0,0-.93,1.49,5.89,5.89,0,0,0-.36,2.18,5.27,5.27,0,0,0,.58,2.5,4.42,4.42,0,0,0,1.61,1.71,5.05,5.05,0,0,0,3.9.4,4,4,0,0,0,1.1-.55,5,5,0,0,0,.79-.67,1.06,1.06,0,0,1,.61-.22.78.78,0,0,1,.6.24.81.81,0,0,1,.24.59.93.93,0,0,1-.4.74,5.93,5.93,0,0,1-1.86,1.33A5.56,5.56,0,0,1,68,27.33Z" fill="#1a1a1a"/><path d="M79.18,26.08a1,1,0,0,1-.3.71.94.94,0,0,1-.71.29.88.88,0,0,1-.69-.29,1,1,0,0,1-.27-.71V9.91a1,1,0,0,1,.29-.7,1,1,0,0,1,1.41,0,1,1,0,0,1,.27.7Z" fill="#1a1a1a"/><path d="M83.2,14.47H89a.86.86,0,0,1,.65.27.9.9,0,0,1,.26.64.89.89,0,0,1-.91.91H83.2a.89.89,0,0,1-.64-.27.9.9,0,0,1-.27-.67.83.83,0,0,1,.27-.62A.92.92,0,0,1,83.2,14.47Zm2.58-3.34a.91.91,0,0,1,.69.29,1,1,0,0,1,.27.7V24a1.71,1.71,0,0,0,.17.88.89.89,0,0,0,.45.41,1.58,1.58,0,0,0,.55.11.94.94,0,0,0,.43-.09,1,1,0,0,1,.43-.09.6.6,0,0,1,.46.24.84.84,0,0,1,.21.6.91.91,0,0,1-.52.75,2.24,2.24,0,0,1-1.15.3c-.23,0-.51,0-.85,0a2.61,2.61,0,0,1-1-.32,2.15,2.15,0,0,1-.83-.9,3.81,3.81,0,0,1-.33-1.75v-12a.91.91,0,0,1,.3-.7A1,1,0,0,1,85.78,11.13Z" fill="#1a1a1a"/><path d="M99.52,14.2a4.21,4.21,0,0,1,2.57.7,3.83,3.83,0,0,1,1.35,1.87,7.8,7.8,0,0,1,.4,2.58v6.73a1,1,0,0,1-.28.71,1,1,0,0,1-1.4,0,1,1,0,0,1-.28-.71V19.35a4.93,4.93,0,0,0-.27-1.68,2.46,2.46,0,0,0-.9-1.2A2.86,2.86,0,0,0,99,16a3.8,3.8,0,0,0-1.84.45,3.59,3.59,0,0,0-1.33,1.2,3,3,0,0,0-.49,1.68v6.73a1,1,0,0,1-.28.71,1,1,0,0,1-1.4,0,1,1,0,0,1-.28-.71V9.91a1,1,0,0,1,1.69-.7,1,1,0,0,1,.27.7v7.33l-.49.54a3.59,3.59,0,0,1,.54-1.28,4.85,4.85,0,0,1,1-1.17,5.32,5.32,0,0,1,1.43-.82A4.35,4.35,0,0,1,99.52,14.2Z" fill="#1a1a1a"/><path d="M108.85,27.06a1.07,1.07,0,0,1-.8-.29,1.13,1.13,0,0,1-.28-.81v-.49a1.17,1.17,0,0,1,.28-.84,1,1,0,0,1,.8-.29H109a1,1,0,0,1,.81.29,1.21,1.21,0,0,1,.27.84V26a1.17,1.17,0,0,1-.27.81,1.07,1.07,0,0,1-.81.29Z" fill="#1a1a1a"/><path d="M119.69,14.08a8.7,8.7,0,0,1,2.26.27,4.49,4.49,0,0,1,1.6.73,1.36,1.36,0,0,1,.58,1.06,1,1,0,0,1-.22.61.68.68,0,0,1-.58.3,1.13,1.13,0,0,1-.56-.12,2,2,0,0,1-.39-.32,1.64,1.64,0,0,0-.5-.35A3,3,0,0,0,121,16a7.19,7.19,0,0,0-1.13-.1,4.42,4.42,0,0,0-2.37.64,4.67,4.67,0,0,0-1.61,1.72,5.07,5.07,0,0,0-.58,2.45,5.19,5.19,0,0,0,.56,2.46,4.49,4.49,0,0,0,1.57,1.72,4.3,4.3,0,0,0,2.33.63,5.23,5.23,0,0,0,1.38-.14A3.82,3.82,0,0,0,122,25a2.6,2.6,0,0,0,.68-.49.82.82,0,0,1,.63-.24.83.83,0,0,1,.65.27,1,1,0,0,1,.23.66,1.31,1.31,0,0,1-.62.93,5.18,5.18,0,0,1-1.65.84,7.58,7.58,0,0,1-2.37.34,6,6,0,0,1-3.26-.87,6,6,0,0,1-2.18-2.38,7.37,7.37,0,0,1-.77-3.38,7.07,7.07,0,0,1,.8-3.36,6,6,0,0,1,5.53-3.26Z" fill="#1a1a1a"/><path d="M138,14.27a.93.93,0,0,1,.7.29,1,1,0,0,1,.29.7V26.08a1,1,0,0,1-.29.71,1,1,0,0,1-1.41,0,1,1,0,0,1-.27-.71V23.75l.47-.05a2.37,2.37,0,0,1-.37,1.18,4.61,4.61,0,0,1-1,1.19,5.29,5.29,0,0,1-1.5.9,4.92,4.92,0,0,1-1.88.36,5.38,5.38,0,0,1-3-.87,6.1,6.1,0,0,1-2.09-2.37,7.26,7.26,0,0,1-.78-3.41,7.25,7.25,0,0,1,.78-3.42,5.91,5.91,0,0,1,2.09-2.33,5.35,5.35,0,0,1,2.95-.85,5.46,5.46,0,0,1,2,.34,5.21,5.21,0,0,1,1.59.93,4.77,4.77,0,0,1,1.05,1.31,3,3,0,0,1,.38,1.42l-.64-.15V15.26a1,1,0,0,1,.27-.7A.94.94,0,0,1,138,14.27ZM133,25.51a3.81,3.81,0,0,0,2.17-.63,4.36,4.36,0,0,0,1.47-1.73,5.63,5.63,0,0,0,.53-2.47,5.56,5.56,0,0,0-.53-2.44,4.2,4.2,0,0,0-1.47-1.72,3.81,3.81,0,0,0-2.17-.63,3.87,3.87,0,0,0-2.15.62,4.2,4.2,0,0,0-1.48,1.69,5.48,5.48,0,0,0-.54,2.48,5.63,5.63,0,0,0,.52,2.47,4.46,4.46,0,0,0,1.48,1.73A3.81,3.81,0,0,0,133,25.51Z" fill="#1a1a1a"/><path d="M144.4,27.08a.89.89,0,0,1-.69-.29,1,1,0,0,1-.29-.71V15.38a1,1,0,0,1,.29-.7.92.92,0,0,1,.69-.28.94.94,0,0,1,.72.28,1,1,0,0,1,.27.7v3.24l-.3-.52a5.59,5.59,0,0,1,.53-1.48,5.13,5.13,0,0,1,1-1.3,4.29,4.29,0,0,1,1.35-.91,4.15,4.15,0,0,1,1.67-.33,1.88,1.88,0,0,1,1,.26.8.8,0,0,1,.46.72,1,1,0,0,1-.27.76.94.94,0,0,1-.62.25,1.43,1.43,0,0,1-.61-.14,1.78,1.78,0,0,0-.74-.13,2.48,2.48,0,0,0-1.21.33,3.87,3.87,0,0,0-1.11.94,5.45,5.45,0,0,0-.81,1.39,4.53,4.53,0,0,0-.3,1.66v6a1,1,0,0,1-.29.71A.9.9,0,0,1,144.4,27.08Z" fill="#1a1a1a"/><path d="M159.37,27.33a6.91,6.91,0,0,1-3.43-.83,6,6,0,0,1-2.3-2.3,6.84,6.84,0,0,1-.82-3.37,7.3,7.3,0,0,1,.85-3.65,6,6,0,0,1,2.21-2.3,5.55,5.55,0,0,1,2.88-.8,5.83,5.83,0,0,1,2.18.42,5.38,5.38,0,0,1,1.87,1.21,6.15,6.15,0,0,1,1.3,1.91,6.49,6.49,0,0,1,.52,2.5.85.85,0,0,1-.3.66,1,1,0,0,1-.69.27H154l-.44-1.7H163l-.4.35v-.54a3.19,3.19,0,0,0-.67-1.73,4,4,0,0,0-3.13-1.51,4.13,4.13,0,0,0-1.46.26A3.48,3.48,0,0,0,156,17a4.26,4.26,0,0,0-.93,1.49,5.89,5.89,0,0,0-.36,2.18,5.16,5.16,0,0,0,.58,2.5,4.34,4.34,0,0,0,1.61,1.71,4.47,4.47,0,0,0,2.4.62,4.56,4.56,0,0,0,1.5-.22,4.19,4.19,0,0,0,1.1-.55,5.43,5.43,0,0,0,.79-.67,1,1,0,0,1,.61-.22.78.78,0,0,1,.6.24.8.8,0,0,1,.23.59,1,1,0,0,1-.39.74,6.17,6.17,0,0,1-1.86,1.33A5.57,5.57,0,0,1,159.37,27.33Z" fill="#1a1a1a"/><path d="M36.38,11.05l-.07,0L30,14.74h0l-2.81,1.63-5.72,3.29-.67.39a3.52,3.52,0,0,0-1.34,4.72,3.54,3.54,0,0,0,4.85,1.36l.52-.31,1.07,2a3.39,3.39,0,0,1-1.36,4.61l-6.13,3.33a4,4,0,0,1-6-3.54V22.67a3.12,3.12,0,0,0,0-.62V14.66a3.51,3.51,0,0,0-7,0v.88h-2A3.39,3.39,0,0,1,0,12.15v-7A4,4,0,0,1,6,1.61l4.7,2.56,1.73.94,2,1.11,6.41,3.51h0a3.51,3.51,0,0,0,3.64-6l1.28-2.09A3.38,3.38,0,0,1,30.42.5l6,3.64A4,4,0,0,1,36.38,11.05Z" fill="#47117b"/><path d="M8.94,24.1a2.05,2.05,0,0,1-2-2.05V14.66a2,2,0,0,1,4.09,0v7.39A2,2,0,0,1,8.94,24.1Z" fill="#47117b"/><path d="M22.51,8.68a2,2,0,0,1-1-.25l-6.41-3.5a2,2,0,0,1,1-3.84,2.07,2.07,0,0,1,1,.25L23.5,4.85a2,2,0,0,1,.77,2.83A2,2,0,0,1,22.51,8.68Z" fill="#47117b"/><path d="M22.52,25.14a2,2,0,0,1-1-3.81l6.4-3.69a2,2,0,0,1,1-.27,2,2,0,0,1,1,3.81l-6.4,3.69A2,2,0,0,1,22.52,25.14Z" fill="#47117b"/></g></g></svg>